<svg width="265" height="46" viewBox="0 0 265 46" fill="none" xmlns="http://www.w3.org/2000/svg">
<path d="M245.12 30.0749V19.9419H227.854L217.721 30.0749H245.12Z" fill="#FF8B00"/>
<path d="M264.601 4.94434H242.957L232.743 15.0773H264.601V4.94434Z" fill="#55B2C6"/>
<path d="M207.674 40.2069L212.862 35.0187H230.372V45.1517H207.674V40.2069Z" fill="#FF0000"/>
<path d="M211.479 25.1306H222.665L232.879 14.9976H211.479V25.1306Z" fill="#B4BBBF"/>
<path d="M199.236 40.2075H207.667L217.719 30.0745H199.236V40.2075Z" fill="#B4BBBF"/>
<path d="M242.961 4.94493L237.773 10.133H204.699V0H242.961V4.94493Z" fill="#B4BBBF"/>
<path d="M25.6162 38.4228H9.72767L6.97148 45.2322H0L14.6726 10.8611H20.7523L35.425 45.2322H28.3724L25.6162 38.4228ZM23.4275 32.9915L17.6719 18.9675L11.9164 32.9915H23.4275Z" fill="white"/>
<path d="M132.238 23.5094C134.265 20.51 139.372 20.1858 141.479 20.1858V26.0224C138.885 26.0224 136.291 26.1035 134.751 27.2384C133.211 28.3733 132.4 29.9135 132.4 31.7779V45.2345H126.077V20.1858H132.157L132.238 23.5094Z" fill="white"/>
<path d="M151.275 20.1858H144.952V45.2345H151.275V20.1858Z" fill="white"/>
<path d="M151.275 8.99854H144.952V16.4564H151.275V8.99854Z" fill="white"/>
<path d="M182.612 8.99854V45.2341H176.533L176.37 41.4241C175.479 42.7211 174.344 43.7749 172.966 44.5856C171.588 45.3152 169.885 45.7205 167.94 45.7205C166.238 45.7205 164.616 45.3962 163.238 44.8288C161.779 44.1802 160.482 43.3696 159.428 42.2348C158.374 41.0999 157.483 39.7218 156.915 38.1816C156.267 36.6413 156.023 34.8579 156.023 32.9124C156.023 30.9669 156.348 29.1834 156.915 27.5622C157.564 25.9409 158.374 24.5628 159.428 23.4279C160.482 22.293 161.779 21.4013 163.238 20.7528C164.697 20.1043 166.238 19.78 167.94 19.78C169.885 19.78 171.507 20.1043 172.885 20.8339C174.263 21.5634 175.398 22.5362 176.289 23.9143V9.07958H182.612V8.99854ZM169.318 40.2892C171.426 40.2892 173.047 39.5596 174.344 38.1816C175.641 36.8035 176.289 34.939 176.289 32.6692C176.289 30.3994 175.641 28.616 174.344 27.1568C173.047 25.7787 171.426 25.0492 169.318 25.0492C167.291 25.0492 165.589 25.7787 164.373 27.1568C163.076 28.5349 162.428 30.3994 162.428 32.6692C162.428 34.939 163.076 36.7224 164.373 38.1005C165.67 39.5596 167.291 40.2892 169.318 40.2892Z" fill="white"/>
<path d="M71.9746 25.8589H56.3293V31.2902H65.2463C65.0031 34.0464 63.9493 36.154 62.1659 37.8564C60.3825 39.4777 58.1127 40.2883 55.1944 40.2883C53.5731 40.2883 52.0329 39.9641 50.7358 39.3966C49.3577 38.8292 48.2229 38.0185 47.2501 36.8836C46.2773 35.8298 45.5478 34.5328 44.9803 32.9925C44.4129 31.4523 44.1697 29.831 44.1697 27.9666C44.1697 26.1021 44.4129 24.4808 44.9803 22.9406C45.4667 21.4004 46.2773 20.1844 47.2501 19.0495C48.2229 17.9957 49.3577 17.1851 50.7358 16.5366C52.1139 15.9691 53.5731 15.6448 55.2754 15.6448C58.6801 15.6448 61.2742 16.4555 63.0576 18.0768L67.2729 13.8615C64.1114 11.4296 60.0582 10.1325 55.2754 10.1325C52.6003 10.1325 50.1684 10.5379 47.9797 11.4296C45.791 12.3213 43.9265 13.4561 42.3863 14.9963C40.846 16.5366 39.6301 18.401 38.8195 20.5898C38.0088 22.7785 37.6035 25.2104 37.6035 27.8044C37.6035 30.3985 38.0088 32.8304 38.9005 35.0191C39.7922 37.2079 40.9271 39.0724 42.4674 40.6126C44.0076 42.1528 45.872 43.3687 48.0607 44.1794C50.2495 45.0711 52.6814 45.4764 55.2754 45.4764C57.8695 45.4764 60.2204 45.0711 62.328 44.1794C64.4357 43.2877 66.2191 42.1528 67.6782 40.6126C69.1374 39.0724 70.2723 37.2079 71.0829 35.0191C71.8936 32.8304 72.2989 30.3985 72.2989 27.8044V26.7506C72.0557 26.5885 71.9746 26.1832 71.9746 25.8589Z" fill="white"/>
<path d="M121.431 25.8589H105.785V31.2902H114.702C114.459 34.0464 113.405 36.154 111.622 37.8564C109.839 39.4777 107.569 40.2883 104.65 40.2883C103.029 40.2883 101.489 39.9641 100.192 39.3966C98.8138 38.8292 97.6789 38.0185 96.7062 36.8836C95.7334 35.8298 95.0038 34.5328 94.4364 32.9925C93.8689 31.4523 93.6257 29.831 93.6257 27.9666C93.6257 26.1021 93.8689 24.4808 94.4364 22.9406C94.9228 21.4004 95.7334 20.1844 96.7062 19.0495C97.6789 17.9957 98.8138 17.1851 100.192 16.5366C101.57 15.9691 103.029 15.6448 104.732 15.6448C108.136 15.6448 110.73 16.4555 112.514 18.0768L116.729 13.8615C113.567 11.4296 109.514 10.1325 104.732 10.1325C102.056 10.1325 99.6245 10.5379 97.4357 11.4296C95.247 12.3213 93.3825 13.4561 91.8423 14.9963C90.3021 16.5366 89.0862 18.401 88.2755 20.5898C87.4649 22.7785 87.0596 25.2104 87.0596 27.8044C87.0596 30.3985 87.4649 32.8304 88.3566 35.0191C89.2483 37.2079 90.3832 39.0724 91.9234 40.6126C93.4636 42.1528 95.3281 43.3687 97.5168 44.1794C99.7055 45.0711 102.137 45.4764 104.732 45.4764C107.326 45.4764 109.676 45.0711 111.784 44.1794C113.892 43.2877 115.675 42.1528 117.134 40.6126C118.593 39.0724 119.728 37.2079 120.539 35.0191C121.35 32.8304 121.755 30.3985 121.755 27.8044V26.7506C121.512 26.5885 121.431 26.1832 121.431 25.8589Z" fill="white"/>
</svg>
